<?xml version="1.0" encoding="UTF-8"?>
<svg id="Camada_1" data-name="Camada 1" xmlns="http://www.w3.org/2000/svg" viewBox="0 0 810.89 235.91">
  <defs>
    <style>
      .cls-1 {
        fill: #c8161d;
      }
    </style>
  </defs>
  <path class="cls-1" d="M141.06,50.06c-2.02-3.53-4.37-6.46-7.06-8.82,13.95,2.52,28.02,5.98,41.58,8.87,21.54,4.56,48.99,11.25,64.88-6.72,5.49-5.95,7.65-14.52,7.56-21.92-.03-3.98-1.42-11.61-5.17-11.84-2.35,0-3.99.85-4.91,2.56-.93,1.71-2.06,3.58-3.4,5.63-1.35,2.05-3.36,3.92-6.05,5.63-14.18,7.32-48.1-2.56-65.01-5.63C115.67,7.35,41.92-1.36,12.81,46.54c-10.89,19.42-6.29,50.69,20.41,50.77,5.04,0,9.07-1.3,12.09-3.9,5.13-4.36,8.78-10.66,8.06-16.88-.34-2.6-1.51-3.91-3.53-3.91-3.26-.07-4.39,2.9-5.92,5.29-1.56,2.56-3.24,5.4-6.68,5.29-4.46,0-6.03-3.93-6.05-8.06,0-2.35,1.13-5.63,3.4-9.83,6.34-10.95,17.6-18.54,31.25-23.43,13.73-5.31,35.15-5.21,51.53-3.28.08,4.85-1.12,10.08-3.78,17.25-5.89,15.7-13.8,32.28-21.42,48.89-8.36,18.06-16.23,37.68-21.42,56.44-6.56,22.23-6.25,49.66,16,61.36,5.7,3.09,16.34,4.55,20.91.25,1.76-1.76,2.65-3.4,2.65-4.91.16-4.43-3.51-3.28-5.54-6.05-.67-.84-1.01-2.43-1.01-4.79.07-29.31,9.44-58.35,20.16-85.04,6.19-15.04,12.45-29.88,17.14-44.1,3.24-10.48,4.83-18.92,0-27.84Z"/>
  <path class="cls-1" d="M804.42,88.51c-4.95-2.85-9.34.64-11.88,4.9-8.71,14.6-12.14,19.9-21.54,34.92-3.11,4.66-9.56,2.27-10.06-2.31-.13-1.19.21-2.39.85-3.41l21.68-35.03c.29-.47.54-.97.74-1.49,1.34-2.68.35-6.69-1.64-7.94-2.94-1.85-7.46-.65-9.1,1.99-8.71,14.07-13.23,21.5-22.23,35.91-1.3,1.99-3.25,2.71-5.09,2.52-3.97-.41-6.04-4.97-3.96-8.36,4.28-6.98,23-37.53,22.92-37.85,2.24-4.21.55-8.7-2.57-10.5-4.15-2.18-8.55-.38-11.69,3.95-9.52,15.51-19.21,30.93-28.61,46.52-1.78,2.96-3,6.48-3.58,9.9-1.44,8.58,1.13,16.39,5.74,23.6.53.82,1.06,1.44.25,2.52-7.97,10.46-15.64,22.12-27.45,28.6-2.13,1.09-3.91,1.27-5.24.67-5.56-2.78-.78-19.83,1.12-26.81,3.28-10,6.67-19.97,10.07-29.93,2.08-5.71,4.23-11.51,6.44-17.43.11-.09.23-.15.35-.21h9.31c2.18,0,4.2-.92,6.05-2.77,3.23-3.2,5.91-8.13,5.54-12.48-.13-1.43-.71-2.33-1.76-2.7-.69-.5-1.55-.8-2.49-.8-3.21-.01-6.43,0-9.89,0,3.77-10.35,7.06-19.85,9.86-28.5,2.66-8.22,4.08-14.58,4.26-19.08,1.04-12.29-8.85-25.98-21.6-28.66-3.32-.63-4.97.83-5.5,4.03-.75,4.58-1.22,9.36-2.94,13.59-7.79,19.17-15.96,38.18-24.08,57.21-.29.68-1.52,1.32-2.34,1.35-4.15.14-8.3.06-12.45.06-6.88,0-11.26,3.49-12.78,10.18-.79,3.46-.27,5.81,1.59,7.09.85.98,2.19,1.48,4.03,1.48h13.22c-4.27,12.81-9.3,25.4-13.66,38.19-1.97,5.79-6.38,10.76-9.9,15.47-4.89,6.46-16.69,20.56-24.69,20.91-2.18,0-3.53-.84-4.03-2.52-1.78-7.53,3.17-16.8,5.79-24.06,1.17-2.94,2.22-5.58,3.15-7.94.92-2.35,1.38-4.11,1.38-5.29.14-11.63-8.36-18.22-19.65-18.14-5.92.39-12.24,7.95-16.13,13.86-5.92,8.53-30.23,43.78-38.8,44.1-6.65-.03-4.2-12.7-2.77-18.39,4.51-16.67,14.22-36.33,27.97-47.37,5-4.18,13.07-7.16,18.14-4.03,2.32,1.6,3.92,3.57,6.05,5.29,1.01.84,2.27,1.26,3.78,1.26,3.19,0,5.42-1.55,6.68-4.66,2.85-7.71-1.4-15.06-8.57-20.16-4.28-3.11-10.21-4.66-17.76-4.66-26.11.46-49.33,22.38-61.44,45.18-10.52,19.93-30.36,42.6-51.7,50.83-23.38,7.78-32.67-7.32-27.21-28.98,4.62,3.65,10.27,5.34,16.88,5.29,26.42.81,42.32-21.43,43.59-45.36.17-3.36-.34-6.68-1.51-9.95-4.31-11.52-15.96-17.42-28.47-17.26-17.3-.02-34.15,9.9-46.36,22.8-8.15,8.61-10.66,13.37-19.14,33.65-2.31,5.53-12.78,21.16-15.13,23.68-5.7,5.81-12.99,13.1-21.17,13.35-11.9.28-20.42-9.45-24.44-19.65-4.97-11.15-2.6-24.28,5.93-33.01,4.05-4.15,8.27-7.78,12.59-10.83,8.05-5.61,17.2-9.86,26.84-9.83,3.69,0,5.92-1.01,6.68-3.02,1.76-5.29-3.43-10.61-8.32-13.61-19.18-10.14-38.99,6.83-52.29,21.17,4.99-14.15,10.17-28.61,14.11-42.46,6.19-23.26,13.96-42.51-11.21-55.94-4.32-1.95-10.87-3.86-10.96,2.14,0,4.88-1.3,11.46-3.91,19.78-5.95,19.04-14.88,39.55-22.8,59.59-9.58,22.14-14.76,45.38-29.98,64.25-4.89,6.46-16.69,20.56-24.69,20.91-2.19,0-3.53-.84-4.03-2.52-1.78-7.53,3.17-16.8,5.8-24.06,1.17-2.94,2.22-5.58,3.15-7.94.92-2.35,1.39-4.11,1.39-5.29.14-11.63-8.36-18.22-19.65-18.14-5.92.39-12.24,7.96-16.13,13.86-8.1,11.73-15.53,22.07-24.69,32.63-3.57,3.92-9.97,11.31-14.11,11.46-15.75-1.14,13.24-72.36,38.55-71.06,5.14-.21,7.36,3.84,10.84,6.55,1.01.84,2.27,1.26,3.78,1.26,3.19,0,5.42-1.55,6.68-4.66,2.86-7.71-1.41-15.06-8.57-20.16-11.83-7.86-29.67-5.13-43.09,2.52-28.34,16.13-47.85,49.34-47.75,82.77,0,5.55,1.01,10.55,3.02,14.99,5.16,12,16.87,20.49,29.73,20.54,15.38.03,29.47-19.77,36.79-32,1.85,10.75,6,18.77,12.47,24.06,9.44,7.7,21.82,10.52,32.88,5.29,8.73-4.16,15.87-11.4,21.79-19.23,2.74,12.13,13.66,22.4,26.34,22.38,4.29.14,7.23-2.67,8.82-6.05.67-1.85,1.09-3.86,1.26-6.05.27-10.44,5.87-23.02,11.09-33.76,3.41,15.84,11.9,33.17,26.83,41.45,8.02,4.55,20.38,6.34,29.61,1.76,10.87-5.14,19.38-14.94,26.16-24.86,9.73,23.93,40.01,31.64,62.79,24.35,15.73-4.87,29.07-15.38,39.7-27.45,1.91,16.26,16.05,30.13,32.36,30.1,15.38.03,29.47-19.77,36.79-32,1.85,10.75,6.01,18.77,12.47,24.06,9.44,7.7,21.82,10.52,32.88,5.29,9.45-4.48,16.97-12.62,23.23-21.1,6.99,15.57,23.53,25.64,39.76,24,2.06,0,4.08-.26,6.07-.76,6.46-1.13,11.67-5.17,16.45-9.55,12.66-11.55,20.91-25.72,28.68-41.34.18-.35.36-.69.53-1.04.42.15.84.29,1.27.42l.37.23c10.83,2.23,23.62-.09,31.18-8.78.88-1,1.7-2.07,2.42-3.23,9.73-15.64,19.8-31.84,29.39-47.59.35-.57,3.32-7.39-1.71-10.66ZM464.52,116.46c4.7-4.28,9.49-6.43,14.36-6.43,2.52,0,3.82,1.26,3.91,3.78-.02,6.51-5.3,12.31-11.09,16.38-3.65,2.54-7.8,3.82-12.38,3.77-3.65-.19-5.6-4.37-3.54-7.38,2.64-3.86,5.55-7.23,8.73-10.13Z"/>
</svg>